<svg xmlns="http://www.w3.org/2000/svg" version="1.1" xmlns:xlink="http://www.w3.org/1999/xlink" xmlns:svgjs="http://svgjs.dev/svgjs" width="128" height="128" viewBox="0 0 128 128"><g transform="matrix(0.6280487804878049,0,0,0.6280487804878049,23.988596796364348,12.760752631578946)"><svg viewBox="0 0 74 95" data-background-color="#ffffff" preserveAspectRatio="xMidYMid meet" height="164" width="128" xmlns="http://www.w3.org/2000/svg" xmlns:xlink="http://www.w3.org/1999/xlink"><g id="tight-bounds" transform="matrix(1,0,0,1,-0.16911489082809794,-0.24049999999999727)"><svg viewBox="0 0 74.33822978165618 95.481" height="95.481" width="74.33822978165618"><g><svg viewBox="0 0 74.33822978165618 95.481" height="95.481" width="74.33822978165618"><g><svg viewBox="0 0 74.33822978165618 95.481" height="95.481" width="74.33822978165618"><g id="textblocktransform"><svg viewBox="0 0 74.33822978165618 95.481" height="95.481" width="74.33822978165618" id="textblock"><g><svg viewBox="0 0 74.33822978165618 95.481" height="95.481" width="74.33822978165618"><g><svg viewBox="0 0 74.33822978165618 95.481" height="95.481" width="74.33822978165618"><g><svg xmlns="http://www.w3.org/2000/svg" xmlns:xlink="http://www.w3.org/1999/xlink" version="1.1" x="0" y="0" viewBox="11.41049864822212 0.43599269551867265 77.1778952127043 99.12830362585" enable-background="new 0 0 100 100" xml:space="preserve" height="95.481" width="74.33822978165618" class="icon-icon-0" data-fill-palette-color="accent" id="icon-0"><g fill="#f8981d" data-fill-palette-color="accent"><path d="M87.327 88.597l-28.522-35.96c-0.618 0.26-1.241 0.511-1.874 0.737l-3.507 6.642 22.485 36.577c2.207 3.151 6.552 3.918 9.707 1.711C88.771 96.094 89.534 91.75 87.327 88.597z" fill="#f8981d" data-fill-palette-color="accent"></path><path d="M56.552 49.796c7.522-2.926 13.464-8.585 18.293-15.481 5.946-8.49 9.569-17.921 7.909-28.165-0.202-1.248-1.142-2.248-2.372-2.529-1.231-0.281-2.51 0.211-3.234 1.246L60.326 28.889l-9.545 13.632-2.252-2.839-5.332-6.723c4.034-4.901 5.445-12.733 1.626-18.187l-1.312-1.873-0.105-0.152L35.74 1.8c-1.015-1.447-3.009-1.798-4.457-0.786-1.446 1.014-1.799 3.009-0.785 4.457l9.878 14.107c0.776 1.108 0.506 2.635-0.602 3.411-1.108 0.776-2.634 0.506-3.41-0.602L26.487 8.28c-1.015-1.448-3.01-1.799-4.457-0.785-1.448 1.013-1.799 3.008-0.786 4.456l9.878 14.107c0.776 1.108 0.507 2.635-0.601 3.411s-2.636 0.506-3.412-0.602l-9.877-14.108c-1.014-1.447-3.01-1.798-4.458-0.785-1.446 1.013-1.798 3.008-0.785 4.456l7.666 10.946 0.107 0.152 1.31 1.873c3.819 5.454 11.661 6.807 17.647 4.691l5.76 9.372 1.982 3.224-26.915 38.44c-2.207 3.151-1.443 7.499 1.711 9.706 3.154 2.21 7.5 1.441 9.707-1.712L51.312 56.58l3.197-6.059C55.205 50.305 55.884 50.058 56.552 49.796z" fill="#f8981d" data-fill-palette-color="accent"></path></g></svg></g></svg></g></svg></g></svg></g></svg></g></svg></g><defs></defs></svg><rect width="74.33822978165618" height="95.481" fill="none" stroke="none" visibility="hidden"></rect></g></svg></g></svg>